<svg width="160" height="151" fill="none" xmlns="http://www.w3.org/2000/svg"><path fill-rule="evenodd" clip-rule="evenodd" d="M2.02 108.685c.618-.22 1.267-.513 1.768-.936.596-.503.838-1.151 1-1.832.209-.876.292-1.809.545-2.686.094-.326.274-.449.352-.504a.861.861 0 01.579-.161c.22.016.523.099.722.469a.945.945 0 01.09.244c.018.081.03.334.049.438.048.257.088.514.126.772.125.86.197 1.59.593 2.38.537 1.073 1.075 1.729 1.804 2.019.706.281 1.55.229 2.627.008.102-.025.204-.046.304-.063a.887.887 0 01.343 1.74c-.098.022-.195.042-.29.061-1.457.361-3.143 1.647-4.123 2.774-.302.348-.744 1.319-1.195 1.938-.333.457-.707.759-1.02.865a.921.921 0 01-.535.025.906.906 0 01-.525-.352.994.994 0 01-.175-.406 3.052 3.052 0 01-.017-.388c-.092-.316-.205-.625-.287-.944-.195-.761-.579-1.243-1.035-1.88a3.56 3.56 0 00-1.555-1.269c-.087-.021-.791-.194-1.04-.293-.364-.145-.537-.388-.6-.519a.995.995 0 01-.096-.578.944.944 0 01.329-.608 1.16 1.16 0 01.53-.251c.181-.038.664-.06.732-.063zm4.133-1.241c.032.073.067.146.104.22.786 1.57 1.666 2.447 2.735 2.873l.035.014a11.936 11.936 0 00-1.857 1.693c-.203.234-.473.72-.764 1.219-.265-.86-.698-1.468-1.242-2.23-.416-.58-.852-1.018-1.388-1.374a6.106 6.106 0 001.158-.755 4.405 4.405 0 001.219-1.66z" fill="#1749B3"/><circle cx="17.72" cy="3.953" r="3.46" fill="#1749B3"/><circle cx="155.543" cy="76.037" r="3.46" fill="#1749B3"/><path d="M74.81 131.973c36.307 0 65.74-29.432 65.74-65.74 0-36.307-29.433-65.74-65.74-65.74-36.307 0-65.74 29.433-65.74 65.74 0 36.308 29.433 65.74 65.74 65.74z" fill="url(#paint0_linear_755_778)"/><path fill-rule="evenodd" clip-rule="evenodd" d="M74.522 26.443c7.165 0 12.975-5.809 12.975-12.975 0-7.166-5.81-12.975-12.975-12.975-7.166 0-12.975 5.81-12.975 12.975 0 7.166 5.809 12.975 12.975 12.975zm-.289-5.766a6.92 6.92 0 100-13.84 6.92 6.92 0 000 13.84z" fill="#011625"/><path d="M74.262 117.614c14.03 0 25.402-11.373 25.402-25.402 0-14.03-11.373-25.402-25.402-25.402-14.03 0-25.402 11.373-25.402 25.402 0 14.029 11.373 25.402 25.402 25.402z" fill="#FE0000"/><path d="M114.466 73.326V53.837a40.08 40.08 0 00-68.422-28.341 40.08 40.08 0 00-11.74 28.341v19.489a23.722 23.722 0 01-13.49 21.405 5.428 5.428 0 00-3.094 4.916v.105a2.827 2.827 0 001.743 2.615c.343.142.71.215 1.082.215H128.22a2.83 2.83 0 001.999-.829 2.815 2.815 0 00.826-2v-.106a5.432 5.432 0 00-3.089-4.9 23.719 23.719 0 01-13.49-21.421z" fill="#E1DCEB"/><path fill-rule="evenodd" clip-rule="evenodd" d="M131.323 102.563H17.72v-3.46h113.603v3.46zm-88.167 8.824c-2.763 2.499-5.518 4.946-8.206 7.524a1.441 1.441 0 101.989 2.084c2.675-2.561 5.406-4.988 8.15-7.469.591-.538.637-1.45.108-2.037a1.446 1.446 0 00-2.041-.102zm62.404.001c2.747 2.5 5.487 4.948 8.159 7.526.577.552.595 1.462.043 2.035a1.439 1.439 0 01-2.039.045c-2.66-2.562-5.376-4.99-8.105-7.471a1.444 1.444 0 011.942-2.135zm-32.969 16.143c-.044 3.716-.12 7.393-.055 11.109a1.43 1.43 0 001.457 1.416 1.443 1.443 0 001.42-1.466c-.06-3.696.013-7.341.058-11.032a1.442 1.442 0 00-1.42-1.457 1.447 1.447 0 00-1.46 1.43z" fill="#011625"/><defs><linearGradient id="paint0_linear_755_778" x1="74.303" y1="-20.913" x2="75.65" y2="209.956" gradientUnits="userSpaceOnUse"><stop stop-color="#F9F9F9"/><stop offset="1" stop-color="#EFEFEF"/></linearGradient></defs></svg>