<svg width="142" height="115" fill="none" xmlns="http://www.w3.org/2000/svg"><path d="M68.28 114.877c31.902 0 57.764-25.578 57.764-57.129C126.044 26.198 100.182.62 68.28.62c-31.9 0-57.763 25.577-57.763 57.128s25.862 57.129 57.763 57.129z" fill="url(#paint0_linear_755_698)"/><path fill-rule="evenodd" clip-rule="evenodd" d="M118.118 94.165c.527-.185 1.081-.432 1.508-.789.507-.424.713-.97.852-1.544.178-.739.249-1.525.465-2.265.08-.275.233-.379.299-.425a.742.742 0 01.494-.135.721.721 0 01.616.395.8.8 0 01.076.205c.016.069.026.282.042.37.041.216.075.433.107.65.107.726.168 1.342.506 2.008.457.904.916 1.457 1.538 1.702.602.237 1.321.192 2.239.007.088-.021.174-.04.26-.054a.756.756 0 01.872.592.749.749 0 01-.58.875 9.959 9.959 0 01-.248.052c-1.241.304-2.678 1.389-3.514 2.339-.257.293-.634 1.112-1.019 1.634-.283.385-.602.639-.87.729a.804.804 0 01-.903-.276.82.82 0 01-.149-.342 2.47 2.47 0 01-.015-.327c-.078-.267-.174-.527-.244-.796-.167-.642-.494-1.048-.882-1.585a3.034 3.034 0 00-1.326-1.07c-.074-.018-.675-.163-.887-.247a.942.942 0 01-.511-.438.832.832 0 01-.082-.487.795.795 0 01.28-.513.998.998 0 01.452-.211c.155-.032.567-.051.624-.054zm3.523-1.046c.028.062.058.123.089.186.671 1.324 1.42 2.063 2.331 2.422l.031.011a10.13 10.13 0 00-1.583 1.428c-.174.198-.404.608-.652 1.028-.226-.725-.595-1.238-1.059-1.88a4.444 4.444 0 00-1.183-1.159c.355-.18.693-.39.987-.636a3.72 3.72 0 001.039-1.4z" fill="#1749B3"/><ellipse cx="2.766" cy="46.616" rx="2.736" ry="2.706" fill="#1749B3"/><path d="M26.421 22.37a.544.544 0 001.045-.303l-1.045.303zm0 0l-.242.07a.795.795 0 00.987.54h0a.793.793 0 00.542-.984c-.803-2.737-2.39-4.883-4.814-6.43a.797.797 0 00-1.098.239c-.24.37-.13.86.24 1.096h0c2.09 1.334 3.45 3.177 4.144 5.54l.241-.07zM52 23.276h0c.547-.276.743-.804.693-1.368-.044-.516-.318-1.09-.467-1.352 0 0 0 0 0 0l-.219.124-.006 2.596zm0 0c-.634.32-1.175.3-1.607.085-.412-.203-.713-.593-.897-1.076h0m2.505.991l-2.505-.991m0 0c-.174-.461-.244-1.028-.251-1.564a6.735 6.735 0 01.108-1.32 10.29 10.29 0 00-1.345-1.13c-3.81-2.685-9.458-1.725-13.853 2.379-.733.684-1.292 1.763-1.717 3.103-.424 1.336-.707 2.906-.9 4.546h0m17.958-6.014l-17.959 6.014m0 0c-.525 4.44-.333 9.334-.242 11.647.013.347.024.636.03.856h0m.213-12.503l-.212 12.504m0 0a4.65 4.65 0 01-.014.522c-.006.065-.014.12-.022.165a.607.607 0 01-.035.128m.07-.815l-.07.815M15.67 16.036a.547.547 0 01.768-.046m-.768.046a.54.54 0 00.045.764c4.58 4.044 7.439 9.52 10.23 14.864l.772 1.475L16.438 15.99m-.768.046l-.189-.167s0 0 0 0l.001-.001.188.168zm.768-.046c4.71 4.158 7.655 9.788 10.528 15.28M16.438 15.99l10.528 15.28m4.29 10.348s0 0 0 0l-.232-.099.23.102.001-.003zm-1.658-5.589c-.025-2.706.06-6.056.513-9.076.237-1.577.582-3.07 1.061-4.352.48-1.28 1.099-2.365 1.895-3.109h0c4.93-4.604 11.418-5.648 15.86-2.515h0c.385.271.755.565 1.106.88 2.384-3.967 7.234-5.523 11.528-3.573 0 0 0 0 0 0L29.598 36.03zm0 0c.088.206.174.413.259.62.003.247.008.487.013.72l-.272-1.34zm0 0c.002.23.004.453.008.672l-.008-.672zm21.491-14.092l.005-.001h-.005zm0 0l.004.014v.008a1.55 1.55 0 01.008.146l-.012-.168zM26.966 31.27c.239.457.477.913.716 1.367l-.716-1.367zm24.02-9.546h0c.03.078.052.131.076.17.01.018.02.028.026.035a2.255 2.255 0 00-.181-.468c.022.094.048.182.079.263z" fill="#011625" stroke="#011625" stroke-width=".503"/><rect x="41.621" y="30.26" width="99.437" height="35.452" rx="12.08" fill="#011625"/><rect x="82.668" y="42.464" width="33.531" height="4.649" rx="2.325" fill="#CCC6D9"/><rect x="50.293" y="49.438" width="66.075" height="4.649" rx="2.325" fill="#fff"/><ellipse cx="128.339" cy="48.276" rx="5.781" ry="5.812" fill="#E1DCEB"/><rect x=".03" y="59.9" width="99.437" height="35.452" rx="12.08" fill="#E1DCEB"/><rect x="24.889" y="72.104" width="33.531" height="4.649" rx="2.325" fill="#FE0000"/><rect x="24.889" y="79.078" width="66.075" height="4.649" rx="2.325" fill="#fff"/><ellipse cx="14.483" cy="77.916" rx="5.781" ry="5.812" fill="#FE0000"/><defs><linearGradient id="paint0_linear_755_698" x1="67.835" y1="-17.982" x2="68.993" y2="182.644" gradientUnits="userSpaceOnUse"><stop stop-color="#E9E6E6"/><stop offset=".276" stop-color="#F7F7F7"/></linearGradient></defs></svg>