<svg width="185" height="171" fill="none" xmlns="http://www.w3.org/2000/svg"><path d="M95.483 170.533c41.1 0 74.417-33.317 74.417-74.416 0-41.1-33.317-74.417-74.417-74.417-41.099 0-74.416 33.317-74.416 74.417 0 41.099 33.317 74.416 74.416 74.416z" fill="url(#paint0_linear_755_220)"/><path d="M50.621 124.933l31.27-85.865 65.942 69.723-76.588 35.158c-12.268 5.631-25.243-6.331-20.624-19.016z" fill="#E1DCEB"/><path d="M123.394 66.185c9.104 9.7 16.443 19.317 20.95 27.02 2.254 3.853 3.791 7.211 4.491 9.852.35 1.321.486 2.446.408 3.355-.079.907-.367 1.578-.848 2.029-.481.451-1.169.697-2.079.717-.912.021-2.026-.186-3.322-.619-2.591-.866-5.846-2.612-9.549-5.106-7.401-4.985-16.534-12.918-25.638-22.619-9.105-9.7-16.444-19.317-20.95-27.02-2.255-3.852-3.791-7.211-4.491-9.852-.35-1.32-.486-2.446-.408-3.355.078-.907.367-1.578.848-2.029.48-.451 1.168-.697 2.078-.717.912-.021 2.026.186 3.322.62 2.592.865 5.846 2.611 9.55 5.105 7.4 4.985 16.533 12.918 25.638 22.619z" fill="#011625" stroke="#011625" stroke-width=".633"/><mask id="mask0_755_220" style="mask-type:alpha" maskUnits="userSpaceOnUse" x="49" y="39" width="99" height="107"><path d="M50.621 124.933l31.27-85.865 65.942 69.723-76.588 35.158c-12.268 5.631-25.243-6.331-20.624-19.016z" fill="#E1DCEB"/></mask><g mask="url(#mask0_755_220)" fill-rule="evenodd" clip-rule="evenodd"><path d="M80.425 96.164C67.214 78.862 60.53 58.235 58.373 44.387l10.639-1.656c1.94 12.465 8.066 31.308 19.97 46.898 11.793 15.444 29.046 27.487 53.651 27.487v10.767c-28.715 0-48.884-14.271-62.208-31.72z" fill="#011625"/><path d="M81.843 92.855C68.632 75.553 61.947 54.926 59.791 41.078l10.639-1.656C72.37 51.887 78.496 70.73 90.4 86.32c11.793 15.443 29.046 27.486 53.651 27.486v10.767c-28.715 0-48.884-14.271-62.208-31.72z" fill="#fff"/><path d="M64.826 117.908C51.615 100.606 44.93 79.979 42.774 66.131l10.639-1.656c1.94 12.465 8.066 31.308 19.97 46.899 11.793 15.443 29.046 27.486 53.651 27.486v10.767c-28.715 0-48.884-14.271-62.208-31.719z" fill="#fff"/></g><circle cx="111" cy="131.9" r="19" fill="#FE0000"/><path fill-rule="evenodd" clip-rule="evenodd" d="M118.688 126.135a1.9 1.9 0 01-.023 2.687l-9.02 8.866a1.9 1.9 0 01-2.664 0l-3.646-3.584a1.9 1.9 0 112.664-2.71l2.314 2.275 7.689-7.557a1.898 1.898 0 012.686.023z" fill="#fff"/><path d="M148.154 41.187h0c1.124-2.855 1.572-5.703 2.042-8.688.08-.508.161-1.02.246-1.538l-2.288 10.226zm0 0a.95.95 0 01-1.231.536h-.002a.945.945 0 01-.536-1.228h0m1.769.692l-1.769-.692m0 0c1.072-2.726 1.496-5.456 1.926-8.227m-1.926 8.227l1.926-8.227m0 0c.083-.536.166-1.073.254-1.612l-.254 1.612zm1.346-2.396a.95.95 0 01.785 1.089l-1.877-.305a.952.952 0 011.092-.784zm3.947 17.375c6.377-4.414 12.624-10.359 17.27-16.586h0a.954.954 0 011.331-.195c.42.311.508.905.195 1.325-4.761 6.382-11.17 12.481-17.711 17.012h0a.953.953 0 01-1.323-.238.945.945 0 01.238-1.318zm0 0h-.001l-.18-.26m.181.26s0 0 0 0l-.181-.26m0 0c6.35-4.396 12.573-10.317 17.198-16.516L154.87 49.063a1.27 1.27 0 01-1.764-.317 1.263 1.263 0 01.317-1.759zm18.818 5.99h0a.947.947 0 01-.651 1.17c-5.128 1.465-10.777 2.21-15.926.638a.948.948 0 01-.631-1.183h0a.95.95 0 011.186-.627h0c4.855 1.481 10.133.698 14.845-.65a.954.954 0 011.177.652z" fill="#011625" stroke="#011625" stroke-width=".633"/><circle cx="155.967" cy="64.133" r="3.8" fill="#1749B3"/><circle cx="124.3" cy="24.867" r="3.8" fill="#1749B3"/><path d="M131.61 41.625c-.328-1.358-2.259-1.358-2.587 0l-.424 1.759a1.332 1.332 0 01-.982.981l-1.759.425c-1.357.328-1.357 2.26 0 2.587l1.759.424c.486.118.864.496.982.982l.424 1.758c.328 1.358 2.259 1.358 2.587 0l.425-1.758a1.33 1.33 0 01.981-.982l1.759-.424c1.358-.328 1.358-2.26 0-2.587l-1.759-.425a1.33 1.33 0 01-.981-.981l-.425-1.759z" fill="#1749B3"/><path fill-rule="evenodd" clip-rule="evenodd" d="M115.411 12.397a1.9 1.9 0 01-1.073 2.463c-2.787 1.096-6.359 4.627-8.744 9.022-1.816 3.345-2.698 6.723-2.328 9.488 1.116-1.592 2.451-2.898 4-3.737 2.776-1.504 5.944-1.345 9.011.745 2.679 1.826 3.772 4.425 3.483 7.013-.277 2.476-1.787 4.714-3.836 6.12-2.079 1.426-4.839 2.084-7.687 1.212-1.614-.494-3.163-1.45-4.579-2.902-1.352 5.262-1.303 11.853.931 17.683a1.9 1.9 0 01-3.549 1.36c-2.946-7.688-2.563-16.469-.161-22.863a24.735 24.735 0 01-.203-.375c-2.527-4.772-1.014-10.782 1.578-15.557 2.611-4.812 6.753-9.196 10.694-10.745a1.9 1.9 0 012.463 1.073zm-10.265 25.277c1.435 2.038 2.924 3.024 4.204 3.416 1.611.493 3.183.14 4.424-.713 1.273-.873 2.072-2.181 2.209-3.408.124-1.113-.264-2.373-1.846-3.45-2.005-1.367-3.651-1.309-5.061-.545-1.406.761-2.798 2.355-3.93 4.7z" fill="#E3E3E3"/><path fill-rule="evenodd" clip-rule="evenodd" d="M176.746 86.706c-19.916-7.402-35.157 1.802-40.086 7.009a3.166 3.166 0 11-4.599-4.355c6.259-6.61 24.075-17.07 46.891-8.59a3.167 3.167 0 01-2.206 5.936z" fill="#CCC6D9"/><path fill-rule="evenodd" clip-rule="evenodd" d="M156.485 93.36c.444-.162.912-.378 1.273-.691.428-.372.602-.851.719-1.355.15-.648.21-1.338.393-1.987.067-.241.197-.332.252-.373a.608.608 0 01.417-.119.605.605 0 01.52.347c.02.04.047.099.065.18.013.06.021.247.035.325.035.19.064.38.091.57.09.637.142 1.177.426 1.761.387.793.774 1.278 1.299 1.493.508.208 1.115.17 1.891.006.074-.018.147-.034.219-.047a.64.64 0 01.736.52c.067.35-.15.69-.489.767a10.73 10.73 0 01-.209.046c-1.049.266-2.262 1.218-2.967 2.051-.218.257-.536.976-.861 1.434-.239.338-.508.56-.735.64a.644.644 0 01-.384.018.65.65 0 01-.378-.26.74.74 0 01-.126-.301 2.22 2.22 0 01-.012-.287c-.067-.234-.148-.462-.207-.698-.14-.563-.416-.92-.744-1.39a2.582 2.582 0 00-1.12-.939c-.062-.016-.569-.143-.748-.216a.806.806 0 01-.432-.384.747.747 0 01.167-.878.828.828 0 01.382-.185c.131-.029.478-.045.527-.047zm2.974-.917l.075.163c.566 1.161 1.199 1.81 1.969 2.125l.025.01c-.514.393-.98.831-1.336 1.252-.147.173-.341.533-.551.902-.19-.636-.502-1.086-.894-1.65a3.836 3.836 0 00-.998-1.016c.299-.157.584-.342.833-.558.414-.36.687-.776.877-1.228z" fill="#1749B3"/><path d="M41.667 103.337a.724.724 0 01-.811.633.732.732 0 01-.632-.816l1.443.183zm0 0l.314.037a1.04 1.04 0 01-1.165.91h0a1.048 1.048 0 01-.906-1.169m1.757.222l.314.038c.408-3.303 1.81-6.053 4.282-8.277h0a1.05 1.05 0 00.08-1.478 1.04 1.04 0 00-1.474-.083l-4.96 9.578m0 0c.471-3.813 2.101-7.005 4.96-9.578l-4.96 9.578z" fill="#011625" stroke="#011625" stroke-width=".633"/><path d="M9.055 108.012h-.022.022zm0 0a.22.22 0 00.043-.074c.025-.06.044-.138.066-.247v-.001a3.06 3.06 0 00.055-.517 3.25 3.25 0 00-.185.833l.021.006zm-.911 1.934h0c.9.291 1.604.148 2.123-.226.495-.355.806-.933.943-1.611h0c.13-.647.1-1.414-.004-2.128a9.162 9.162 0 00-.43-1.744c.46-.644.977-1.248 1.541-1.805 4.455-4.395 12.115-4.31 18.794.231 1.117.76 2.089 2.084 2.937 3.782.847 1.693 1.556 3.727 2.163 5.872 1.646 5.811 2.443 12.377 2.819 15.478.056.465.103.852.142 1.147v.001c.039.289.086.52.13.69.022.085.043.156.063.214.017.047.04.109.071.158.264.423.639.492.869.499h.004a1.22 1.22 0 00.77-.241v-.001c.264-.199.449-.502.49-.903v-.002a2.861 2.861 0 00-.059-.74v-.003a3.41 3.41 0 00-.033-.143l-.029-.121a.881.881 0 01-.016-.088c-.003-.023-.002-.032-.002-.031.084-.708.205-1.407.328-2.118l.053-.313h0c.46-2.718 1.203-5.319 2.075-7.947l-.3-.1.3.1c.234-.706.466-1.414.7-2.123 2.537-7.727 5.115-15.576 10.245-21.889h0a1.05 1.05 0 00-.148-1.473 1.04 1.04 0 00-1.469.146v.001c-5.357 6.59-8.05 14.773-10.655 22.692-.218.663-.435 1.324-.654 1.982h0a66.339 66.339 0 00-1.501 5.129c-.549-3.629-1.381-8.12-2.638-12.084-.65-2.051-1.423-3.966-2.33-5.571-.904-1.602-1.95-2.914-3.156-3.734h0c-7.481-5.088-16.25-5.103-21.427.008h0a16.11 16.11 0 00-1.28 1.423C5.59 97.572-1.138 96.52-6.38 100.029a1.05 1.05 0 00-.29 1.451h0l.001.002c.321.479.967.613 1.45.291h0c4.498-3.011 10.307-1.963 13.555 2.39a14.162 14.162 0 00-1.057 2.236c-.14.379-.377 1.2-.325 1.891.054.754.421 1.407 1.19 1.656z" fill="#011625" stroke="#011625" stroke-width=".633"/><defs><linearGradient id="paint0_linear_755_220" x1="94.91" y1="-2.532" x2="96.434" y2="258.808" gradientUnits="userSpaceOnUse"><stop stop-color="#E9E6E6"/><stop offset=".276" stop-color="#F7F7F7"/></linearGradient></defs></svg>